<?xml version="1.0" encoding="UTF-8" standalone="no"?>
<!DOCTYPE svg PUBLIC "-//W3C//DTD SVG 1.1//EN" "http://www.w3.org/Graphics/SVG/1.1/DTD/svg11.dtd">
<!-- Created with Vectornator (http://vectornator.io/) -->
<svg height="100%" stroke-miterlimit="10" style="fill-rule:nonzero;clip-rule:evenodd;stroke-linecap:round;stroke-linejoin:round;" version="1.1" viewBox="0 0 512 512" width="100%" xml:space="preserve" xmlns="http://www.w3.org/2000/svg" xmlns:vectornator="http://vectornator.io" xmlns:xlink="http://www.w3.org/1999/xlink">
<defs/>
<g id="Layer-1" vectornator:layerName="Layer 1">
<path d="M38.3789 0.488281C37.793 0.683594 37.1745 1.00911 36.5234 1.46484C35.8724 1.92057 35.2214 2.79948 34.5703 4.10156C33.9193 5.40365 33.5938 9.99349 33.5938 17.8711C33.5938 25.7487 33.5286 29.9154 33.3984 30.3711C33.2682 30.8268 32.9427 31.3477 32.4219 31.9336C31.901 32.5195 31.3151 32.9427 30.6641 33.2031C30.013 33.4635 25.7487 33.5938 17.8711 33.5938C9.99349 33.5938 5.56641 33.7891 4.58984 34.1797C3.61328 34.5703 2.83203 35.0586 2.24609 35.6445C1.66016 36.2305 1.17188 36.9792 0.78125 37.8906C0.390625 38.8021 0.195312 42.9036 0.195312 50.1953C0.195312 57.487 0.292969 61.4258 0.488281 62.0117C0.683594 62.5977 1.00911 63.2161 1.46484 63.8672C1.92057 64.5182 2.79948 65.1693 4.10156 65.8203C5.40365 66.4714 9.99349 66.7969 17.8711 66.7969C25.7487 66.7969 29.9154 66.862 30.3711 66.9922C30.8268 67.1224 31.3477 67.4479 31.9336 67.9688C32.5195 68.4896 32.9427 69.0755 33.2031 69.7266C33.4635 70.3776 33.5938 74.6419 33.5938 82.5195C33.5938 90.3971 33.7891 94.8242 34.1797 95.8008C34.5703 96.7773 35.0586 97.5586 35.6445 98.1445C36.2305 98.7305 36.9792 99.2188 37.8906 99.6094C38.8021 100 42.9036 100.195 50.1953 100.195C57.487 100.195 61.4258 100.098 62.0117 99.9023C62.5977 99.707 63.2161 99.3815 63.8672 98.9258C64.5182 98.4701 65.1693 97.5911 65.8203 96.2891C66.4714 94.987 66.7969 90.3971 66.7969 82.5195C66.7969 74.6419 66.862 70.4753 66.9922 70.0195C67.1224 69.5638 67.4479 69.043 67.9688 68.457C68.4896 67.8711 69.0755 67.4479 69.7266 67.1875C70.3776 66.9271 74.6419 66.7969 82.5195 66.7969C90.3971 66.7969 94.8242 66.6016 95.8008 66.2109C96.7773 65.8203 97.5586 65.332 98.1445 64.7461C98.7305 64.1602 99.2188 63.4115 99.6094 62.5C100 61.5885 100.195 57.487 100.195 50.1953C100.195 42.9036 100.098 38.9648 99.9023 38.3789C99.707 37.793 99.3815 37.1745 98.9258 36.5234C98.4701 35.8724 97.5911 35.2214 96.2891 34.5703C94.987 33.9193 90.3971 33.5938 82.5195 33.5938C74.6419 33.5938 70.4753 33.5286 70.0195 33.3984C69.5638 33.2682 69.043 32.9427 68.457 32.4219C67.8711 31.901 67.4479 31.3151 67.1875 30.6641C66.9271 30.013 66.7969 25.7487 66.7969 17.8711C66.7969 9.99349 66.6016 5.56641 66.2109 4.58984C65.8203 3.61328 65.332 2.83203 64.7461 2.24609C64.1602 1.66016 63.4115 1.17188 62.5 0.78125C61.5885 0.390625 57.487 0.195312 50.1953 0.195312C42.9036 0.195312 38.9648 0.292969 38.3789 0.488281ZM50.3906 8.88672C50.651 8.95182 50.9115 9.14714 51.1719 9.47266C51.4323 9.79818 52.9622 11.9141 55.7617 15.8203C58.5612 19.7266 59.9609 21.8424 59.9609 22.168C59.9609 22.3307 59.9609 22.4935 59.9609 22.6562C56.6732 22.6237 53.3854 22.5911 50.0977 22.5586C46.8099 22.526 43.5221 22.4935 40.2344 22.4609C40.7552 21.6471 41.276 20.8333 41.7969 20.0195C42.8385 18.3919 44.4661 16.1133 46.6797 13.1836C48.8932 10.2539 50.1302 8.82161 50.3906 8.88672ZM50.6836 38.9648C52.181 39.0299 53.5807 39.3555 54.8828 39.9414C56.1849 40.5273 57.3568 41.3737 58.3984 42.4805C59.4401 43.5872 60.2214 44.8568 60.7422 46.2891C61.263 47.7214 61.4909 49.1862 61.4258 50.6836C61.3607 52.181 61.0352 53.5807 60.4492 54.8828C59.8633 56.1849 59.0169 57.3568 57.9102 58.3984C56.8034 59.4401 55.5339 60.2214 54.1016 60.7422C52.6693 61.263 51.2044 61.4909 49.707 61.4258C48.2096 61.3607 46.8099 61.0352 45.5078 60.4492C44.2057 59.8633 43.0339 59.0169 41.9922 57.9102C40.9505 56.8034 40.1693 55.5339 39.6484 54.1016C39.1276 52.6693 38.8997 51.2044 38.9648 49.707C39.0299 48.2096 39.3555 46.8099 39.9414 45.5078C40.5273 44.2057 41.3737 43.0339 42.4805 41.9922C43.5872 40.9505 44.8568 40.1693 46.2891 39.6484C47.7214 39.1276 49.1862 38.8997 50.6836 38.9648ZM22.3633 40.332C22.5586 40.3971 22.6237 43.7174 22.5586 50.293C22.526 53.5807 22.4935 56.8685 22.4609 60.1562C21.6471 59.6354 20.8333 59.1146 20.0195 58.5938C18.3919 57.5521 16.1133 55.9245 13.1836 53.7109C10.2539 51.4974 8.85417 50.2279 8.98438 49.9023C9.11458 49.5768 11.3281 47.8841 15.625 44.8242C19.9219 41.7643 22.168 40.2669 22.3633 40.332ZM77.9297 40.2344C78.7435 40.7552 79.5573 41.276 80.3711 41.7969C81.9987 42.8385 84.2773 44.4661 87.207 46.6797C90.1367 48.8932 91.5365 50.1628 91.4062 50.4883C91.276 50.8138 89.0625 52.5065 84.7656 55.5664C80.4688 58.6263 78.2227 60.1237 78.0273 60.0586C77.832 59.9935 77.7669 56.6732 77.832 50.0977C77.8646 46.8099 77.8971 43.5221 77.9297 40.2344ZM40.4297 77.7344C43.6849 77.7344 46.9401 77.7344 50.1953 77.7344C56.7057 77.7344 59.9935 77.832 60.0586 78.0273C60.1237 78.2227 58.6263 80.4688 55.5664 84.7656C52.5065 89.0625 50.8138 91.276 50.4883 91.4062C50.1628 91.5365 48.4049 89.4531 45.2148 85.1562C42.0247 80.8594 40.4297 78.5482 40.4297 78.2227C40.4297 78.0599 40.4297 77.8971 40.4297 77.7344Z" fill="#ffffff" fill-rule="nonzero" opacity="1" stroke="none"/>
</g>
</svg>
