<?xml version="1.0" encoding="UTF-8" standalone="no"?>
<!DOCTYPE svg PUBLIC "-//W3C//DTD SVG 1.1//EN" "http://www.w3.org/Graphics/SVG/1.1/DTD/svg11.dtd">
<!-- Created with Vectornator (http://vectornator.io/) -->
<svg height="100%" stroke-miterlimit="10" style="fill-rule:nonzero;clip-rule:evenodd;stroke-linecap:round;stroke-linejoin:round;" version="1.1" viewBox="0 0 496 512" width="100%" xml:space="preserve" xmlns="http://www.w3.org/2000/svg" xmlns:vectornator="http://vectornator.io" xmlns:xlink="http://www.w3.org/1999/xlink">
<defs/>
<clipPath id="ArtboardFrame">
<rect height="512" width="496" x="0" y="0"/>
</clipPath>
<g clip-path="url(#ArtboardFrame)" id="Layer-1" vectornator:layerName="Layer 1">
<path d="M198 14C180 17.3333 163.333 22.1667 148 28.5C132.667 34.8333 118 42.8333 104 52.5C90 62.1667 77 73.5 65 86.5C53 99.5 42.8333 113.167 34.5 127.5C26.1667 141.833 19.3333 157.167 14 173.5C8.66667 189.833 5.16667 203.833 3.5 215.5C1.83333 227.167 1 239.667 1 253C1 266.333 1.66667 278 3 288C4.33333 298 7 310 11 324C15 338 19.6667 350.667 25 362C30.3333 373.333 35.6667 383.167 41 391.5C46.3333 399.833 52 407.667 58 415C64 422.333 70.8333 429.667 78.5 437C86.1667 444.333 95.6667 452 107 460C118.333 468 131.833 475.5 147.5 482.5C163.167 489.5 173 492.667 177 492C181 491.333 183.833 489.833 185.5 487.5C187.167 485.167 188 473.167 188 451.5C188 440.667 188 429.833 188 419C182.167 419.333 176.333 419.667 170.5 420C158.833 420.667 150 420.5 144 419.5C138 418.5 132.667 417 128 415C123.333 413 118.5 409.5 113.5 404.5C108.5 399.5 105.5 395.333 104.5 392C103.5 388.667 100.667 383 96 375C91.3333 367 85.1667 359.833 77.5 353.5C69.8333 347.167 66 343.167 66 341.5C66 339.833 66.8333 338.667 68.5 338C70.1667 337.333 72.3333 337 75 337C77.6667 337 81.5 337.833 86.5 339.5C91.5 341.167 96.8333 344.333 102.5 349C108.167 353.667 112.333 358.333 115 363C117.667 367.667 120.5 371.667 123.5 375C126.5 378.333 129.833 381.167 133.5 383.5C137.167 385.833 141.833 387.667 147.5 389C153.167 390.333 158.333 390.833 163 390.5C167.667 390.167 172.833 389.167 178.5 387.5C184.167 385.833 188 381.667 190 375C192 368.333 194.833 362.667 198.5 358C202.167 353.333 203.833 350.667 203.5 350C203.167 349.333 195.167 347.833 179.5 345.5C163.833 343.167 152 340.333 144 337C136 333.667 128.833 329.333 122.5 324C116.167 318.667 110.667 311.833 106 303.5C101.333 295.167 98 286.5 96 277.5C94 268.5 92.8333 258.167 92.5 246.5C92.1667 234.833 92.8333 225.333 94.5 218C96.1667 210.667 98.1667 204.833 100.5 200.5C102.833 196.167 106 191.833 110 187.5C114 183.167 115.167 178 113.5 172C111.833 166 111 159 111 151C111 143 112.167 134.667 114.5 126C116.833 117.333 120 112.833 124 112.5C128 112.167 132.333 112.667 137 114C141.667 115.333 148.167 118 156.5 122C164.833 126 171.833 130 177.5 134C183.167 138 191.333 138.833 202 136.5C212.667 134.167 222.167 132.667 230.5 132C238.833 131.333 249.333 131.333 262 132C274.667 132.667 286.333 134.167 297 136.5C307.667 138.833 316.5 137.667 323.5 133C330.5 128.333 338 124.167 346 120.5C354 116.833 360 114.5 364 113.5C368 112.5 372 112.167 376 112.5C380 112.833 383.167 117.833 385.5 127.5C387.833 137.167 389 145 389 151C389 157 388.167 163.5 386.5 170.5C384.833 177.5 386.667 184.167 392 190.5C397.333 196.833 401.5 204 404.5 212C407.5 220 409 230.333 409 243C409 255.667 407.833 267 405.5 277C403.167 287 399.833 295.833 395.5 303.5C391.167 311.167 385 318.167 377 324.5C369 330.833 360.167 335.667 350.5 339C340.833 342.333 329.167 345 315.5 347C308.667 348 301.833 349 295 350C297 352.667 299 355.333 301 358C305 363.333 307.833 369.5 309.5 376.5C311.167 383.5 312 403.333 312 436C312 468.667 312.833 486 314.5 488C316.167 490 318.833 491.333 322.5 492C326.167 492.667 335.333 489.833 350 483.5C364.667 477.167 377.833 470 389.5 462C401.167 454 412.5 444.5 423.5 433.5C434.5 422.5 443.833 411.5 451.5 400.5C459.167 389.5 466 377.667 472 365C478 352.333 483.167 338 487.5 322C491.833 306 494.5 294 495.5 286C496.5 278 497 267.167 497 253.5C497 239.833 496.333 228.167 495 218.5C493.667 208.833 490.5 196 485.5 180C480.5 164 474.667 149.833 468 137.5C461.333 125.167 454.833 114.833 448.5 106.5C442.167 98.1667 435.167 90.1667 427.5 82.5C419.833 74.8333 412.833 68.5 406.5 63.5C400.167 58.5 390.167 52 376.5 44C362.833 36 349 29.5 335 24.5C321 19.5 306 15.6667 290 13C274 10.3333 259.167 9 245.5 9C231.833 9 216 10.6667 198 14ZM88 347.5C88.6667 349.167 89.8333 350 91.5 350C92.3333 350 93.1667 350 94 350C93.8333 349.167 93.6667 348.333 93.5 347.5C93.1667 345.833 92 345 90 345C89 345 88 345 87 345C87.3333 345.833 87.6667 346.667 88 347.5ZM98 356C98 358 99 359.333 101 360C102 360.333 103 360.667 104 361C104.167 360.167 104.333 359.333 104.5 358.5C104.833 356.833 104.5 355.5 103.5 354.5C102.5 353.5 101.333 353 100 353C99.3333 353 98.6667 353 98 353C98 354 98 355 98 356ZM107.5 369C107.167 371 107.833 372.667 109.5 374C111.167 375.333 112.5 375.833 113.5 375.5C114.5 375.167 115 374 115 372C115 370 114.5 368.5 113.5 367.5C112.5 366.5 111.333 366 110 366C108.667 366 107.833 367 107.5 369ZM120 380.5C119.333 380.833 119 381.833 119 383.5C119 385.167 120.333 386.667 123 388C125.667 389.333 127.333 389.5 128 388.5C128.667 387.5 128.833 386.333 128.5 385C128.167 383.667 126.833 382.5 124.5 381.5C122.167 380.5 120.667 380.167 120 380.5ZM136.5 392.5C135.5 393.5 135.5 394.833 136.5 396.5C137.5 398.167 139.167 399 141.5 399C143.833 399 145.333 398.667 146 398C146.667 397.333 146.833 396.333 146.5 395C146.167 393.667 144.667 392.667 142 392C139.333 391.333 137.5 391.5 136.5 392.5ZM176.5 395C176 396 175.5 397 175 398C176.333 398.333 177.667 398.667 179 399C181.667 399.667 183.5 399 184.5 397C185 396 185.5 395 186 394C184.667 393.667 183.333 393.333 182 393C179.333 392.333 177.5 393 176.5 395ZM157 396C156.333 396.667 156.333 397.833 157 399.5C157.667 401.167 159.167 402 161.5 402C163.833 402 165.333 401.667 166 401C166.667 400.333 166.667 399.167 166 397.5C165.333 395.833 163.833 395 161.5 395C159.167 395 157.667 395.333 157 396Z" fill="#ffffff" fill-rule="nonzero" opacity="1" stroke="none"/>
</g>
</svg>
