<?xml version="1.0" encoding="UTF-8" standalone="no"?>
<!DOCTYPE svg PUBLIC "-//W3C//DTD SVG 1.1//EN" "http://www.w3.org/Graphics/SVG/1.1/DTD/svg11.dtd">
<!-- Created with Vectornator (http://vectornator.io/) -->
<svg height="100%" stroke-miterlimit="10" style="fill-rule:nonzero;clip-rule:evenodd;stroke-linecap:round;stroke-linejoin:round;" version="1.1" viewBox="0 0 448 512" width="100%" xml:space="preserve" xmlns="http://www.w3.org/2000/svg" xmlns:vectornator="http://vectornator.io" xmlns:xlink="http://www.w3.org/1999/xlink">
<defs/>
<clipPath id="ArtboardFrame">
<rect height="512" width="448" x="0" y="0"/>
</clipPath>
<g clip-path="url(#ArtboardFrame)" id="Untitled" vectornator:layerName="Untitled">
<path d="M224 202.66C194.544 202.671 170.673 226.557 170.68 256.013C170.687 285.47 194.57 309.344 224.027 309.34C253.483 309.336 277.36 285.456 277.36 256C277.338 226.542 253.458 202.671 224 202.66ZM348.71 161.66C343.221 147.75 332.21 136.739 318.3 131.25C297.3 122.96 247.3 124.82 224 124.82C200.7 124.82 150.75 122.89 129.69 131.25C115.78 136.739 104.769 147.75 99.28 161.66C91 182.66 92.85 232.71 92.85 255.99C92.85 279.27 91 329.26 99.32 350.33C104.809 364.24 115.82 375.251 129.73 380.74C150.73 389.03 200.73 387.17 224.04 387.17C247.35 387.17 297.28 389.1 318.34 380.74C332.25 375.251 343.261 364.24 348.75 350.33C357.1 329.33 355.18 279.28 355.18 256C355.18 232.72 357.1 182.74 348.75 161.67L348.71 161.66ZM224 338C178.713 338 142 301.287 142 256C142 210.713 178.713 174 224 174C269.287 174 306 210.713 306 256C306.027 277.756 297.396 298.628 282.012 314.012C266.628 329.396 245.756 338.027 224 338ZM309.38 189.7C298.808 189.706 290.234 181.139 290.23 170.567C290.226 159.995 298.795 151.422 309.367 151.42C319.939 151.418 328.51 159.988 328.51 170.56C328.531 175.638 326.53 180.515 322.948 184.114C319.366 187.713 314.498 189.737 309.42 189.74L309.38 189.7ZM400 32L48 32C21.4903 32 2.57234e-06 53.4903-1.43051e-06 80L-1.43051e-06 432C-8.58307e-06 458.51 21.4903 480 48 480L400 480C426.51 480 448 458.51 448 432L448 80C448 53.4903 426.51 32 400 32ZM382.88 322C381.59 347.63 375.74 370.34 357.03 389C338.32 407.66 315.63 413.63 290.03 414.85C263.62 416.34 184.44 416.34 158.03 414.85C132.4 413.56 109.77 407.7 91.03 389C72.29 370.3 66.4 347.58 65.18 322C63.69 295.58 63.69 216.39 65.18 190C66.47 164.37 72.25 141.66 91.03 123C109.81 104.34 132.5 98.44 158.03 97.22C184.44 95.73 263.62 95.73 290.03 97.22C315.66 98.51 338.36 104.37 357.03 123.07C375.7 141.77 381.66 164.49 382.88 190.12C384.37 216.44 384.37 295.56 382.88 322Z" fill="#ffffff" fill-rule="nonzero" opacity="1" stroke="none"/>
</g>
</svg>
