<?xml version="1.0" encoding="UTF-8" standalone="no"?>
<!DOCTYPE svg PUBLIC "-//W3C//DTD SVG 1.1//EN" "http://www.w3.org/Graphics/SVG/1.1/DTD/svg11.dtd">
<!-- Created with Vectornator (http://vectornator.io/) -->
<svg height="100%" stroke-miterlimit="10" style="fill-rule:nonzero;clip-rule:evenodd;stroke-linecap:round;stroke-linejoin:round;" version="1.1" viewBox="0 0 448 512" width="100%" xml:space="preserve" xmlns="http://www.w3.org/2000/svg" xmlns:vectornator="http://vectornator.io" xmlns:xlink="http://www.w3.org/1999/xlink">
<defs/>
<clipPath id="ArtboardFrame">
<rect height="512" width="448" x="0" y="0"/>
</clipPath>
<g clip-path="url(#ArtboardFrame)" id="Layer-1" vectornator:layerName="Layer 1">
<path d="M19.5 36C15.1667 38 11.6667 40.5 9 43.5C6.33333 46.5 4.33333 49.6667 3 53C1.66667 56.3333 1 124.333 1 257C1 389.667 2 458.167 4 462.5C6 466.833 8.5 470.333 11.5 473C14.5 475.667 17.6667 477.667 21 479C24.3333 480.333 92.3333 481 225 481C357.667 481 426.167 480 430.5 478C434.833 476 438.333 473.5 441 470.5C443.667 467.5 445.667 464.333 447 461C448.333 457.667 449 389.667 449 257C449 124.333 448 55.8333 446 51.5C444 47.1667 441.5 43.6667 438.5 41C435.5 38.3333 432.333 36.3333 429 35C425.667 33.6667 357.667 33 225 33C92.3333 33 23.8333 34 19.5 36ZM106 97.5C110.667 97.8333 115.333 99.1667 120 101.5C124.667 103.833 128.5 106.667 131.5 110C134.5 113.333 136.833 117 138.5 121C140.167 125 141 129.833 141 135.5C141 141.167 139.833 146.5 137.5 151.5C135.167 156.5 131.833 160.833 127.5 164.5C123.167 168.167 118.667 170.667 114 172C109.333 173.333 104.167 173.667 98.5 173C92.8333 172.333 88 170.833 84 168.5C80 166.167 76.5 163.167 73.5 159.5C70.5 155.833 68.3333 151.833 67 147.5C65.6667 143.167 65.1667 138.333 65.5 133C65.8333 127.667 67.1667 122.667 69.5 118C71.8333 113.333 74.5 109.667 77.5 107C80.5 104.333 84.8333 102 90.5 100C96.1667 98 101.333 97.1667 106 97.5ZM314.5 199C324.833 199.667 333.833 201.5 341.5 204.5C349.167 207.5 355.5 211.333 360.5 216C365.5 220.667 369.667 226.167 373 232.5C376.333 238.833 379.167 248.667 381.5 262C383.833 275.333 385 304.5 385 349.5C385 372 385 394.5 385 417C374 417 363 417 352 417C341 417 330 417 319 417C319 396.333 319 375.667 319 355C319 313.667 318.667 291 318 287C317.333 283 315.833 278.5 313.5 273.5C311.167 268.5 308.833 265 306.5 263C304.167 261 301 259.333 297 258C293 256.667 288.667 256 284 256C279.333 256 274 257.167 268 259.5C262 261.833 257.833 264.333 255.5 267C253.167 269.667 251 273.5 249 278.5C247 283.5 245.667 288.5 245 293.5C244.333 298.5 244 320.333 244 359C244 378.333 244 397.667 244 417C233 417 222 417 211 417C200 417 189 417 178 417C178 381.5 178 346 178 310.5C178 275 178 239.5 178 204C188.5 203.833 199 203.667 209.5 203.5C230.5 203.167 241.333 208 242 218C242.333 223 242.667 228 243 233C243.667 231.667 244.333 230.333 245 229C246.333 226.333 249.667 222.5 255 217.5C260.333 212.5 265.667 208.667 271 206C276.333 203.333 282.333 201.333 289 200C295.667 198.667 304.167 198.333 314.5 199ZM70 203C81 203 92 203 103 203C114 203 125 203 136 203C136 238.667 136 274.333 136 310C136 345.667 136 381.333 136 417C125 417 114 417 103 417C92 417 81 417 70 417C70 381.333 70 345.667 70 310C70 274.333 70 238.667 70 203Z" fill="#ffffff" fill-rule="nonzero" opacity="1" stroke="none"/>
</g>
</svg>
