<?xml version="1.0" encoding="UTF-8" standalone="no"?>
<!DOCTYPE svg PUBLIC "-//W3C//DTD SVG 1.1//EN" "http://www.w3.org/Graphics/SVG/1.1/DTD/svg11.dtd">
<!-- Created with Vectornator (http://vectornator.io/) -->
<svg height="100%" stroke-miterlimit="10" style="fill-rule:nonzero;clip-rule:evenodd;stroke-linecap:round;stroke-linejoin:round;" version="1.1" viewBox="0 0 512 512" width="100%" xml:space="preserve" xmlns="http://www.w3.org/2000/svg" xmlns:vectornator="http://vectornator.io" xmlns:xlink="http://www.w3.org/1999/xlink">
<defs/>
<g id="Untitled" vectornator:layerName="Untitled">
<path d="M500.637 277.886C513.088 265.435 513.088 245.215 500.637 232.763L373.137 105.263C360.685 92.8122 340.465 92.8122 328.014 105.263C315.562 117.715 315.562 137.935 328.014 150.386L401.127 223.5L31.875 223.5C14.2441 223.5 0 237.744 0 255.375C0 273.006 14.2441 287.25 31.875 287.25L401.127 287.25L328.014 360.363C315.562 372.814 315.562 393.035 328.014 405.486C340.465 417.937 360.685 417.937 373.137 405.486L500.637 277.986L500.637 277.886Z" fill="#ffffff" fill-rule="nonzero" opacity="1" stroke="none"/>
</g>
</svg>
