<?xml version="1.0" encoding="UTF-8" standalone="no"?>
<!DOCTYPE svg PUBLIC "-//W3C//DTD SVG 1.1//EN" "http://www.w3.org/Graphics/SVG/1.1/DTD/svg11.dtd">
<!-- Created with Vectornator (http://vectornator.io/) -->
<svg height="100%" stroke-miterlimit="10" style="fill-rule:nonzero;clip-rule:evenodd;stroke-linecap:round;stroke-linejoin:round;" version="1.1" viewBox="0 0 564 412" width="100%" xml:space="preserve" xmlns="http://www.w3.org/2000/svg" xmlns:vectornator="http://vectornator.io" xmlns:xlink="http://www.w3.org/1999/xlink">
<defs/>
<g id="Layer-1" vectornator:layerName="Layer 1">
<path d="M292 29.5C288.667 31.1667 270.167 47.1667 236.5 77.5C202.833 107.833 176.5 123 157.5 123C138.5 123 127 123.5 123 124.5C119 125.5 115 127.167 111 129.5C107 131.833 103.167 135 99.5 139C95.8333 143 92.8333 148.333 90.5 155C88.1667 161.667 87 175 87 195C87 215 88.1667 228.333 90.5 235C92.8333 241.667 96.5 247.5 101.5 252.5C106.5 257.5 112.333 261.167 119 263.5C125.667 265.833 138.5 267 157.5 267C176.5 267 202.833 282.167 236.5 312.5C270.167 342.833 288.667 358.833 292 360.5C295.333 362.167 298.833 363 302.5 363C306.167 363 309.5 362.333 312.5 361C315.5 359.667 318.167 357.833 320.5 355.5C322.833 353.167 324.5 350.5 325.5 347.5C326.5 344.5 327 293.667 327 195C327 96.3333 326.5 45.5 325.5 42.5C324.5 39.5 322.833 36.8333 320.5 34.5C318.167 32.1667 315.5 30.3333 312.5 29C309.5 27.6667 306.167 27 302.5 27C298.833 27 295.333 27.8333 292 29.5ZM420.5 82.5C416.833 84.8333 414.5 87.5 413.5 90.5C412.5 93.5 412.167 96.3333 412.5 99C412.833 101.667 416.333 106.5 423 113.5C429.667 120.5 435 126.833 439 132.5C443 138.167 446.667 145 450 153C453.333 161 455.667 169.5 457 178.5C458.333 187.5 458.833 195 458.5 201C458.167 207 456.833 214.5 454.5 223.5C452.167 232.5 448.667 241 444 249C439.333 257 433.167 264.833 425.5 272.5C417.833 280.167 413.667 285.167 413 287.5C412.333 289.833 412.167 292.5 412.5 295.5C412.833 298.5 413.833 301.167 415.5 303.5C417.167 305.833 419.333 307.667 422 309C424.667 310.333 427.167 311 429.5 311C431.833 311 434.833 310.167 438.5 308.5C442.167 306.833 447 303 453 297C459 291 465.5 282.5 472.5 271.5C479.5 260.5 484.5 250.667 487.5 242C490.5 233.333 492.5 225.333 493.5 218C494.5 210.667 495 203 495 195C495 187 494 177.667 492 167C490 156.333 486.667 145.833 482 135.5C477.333 125.167 472.833 117 468.5 111C464.167 105 459 99 453 93C447 87 442.833 83.3333 440.5 82C438.167 80.6667 435.167 79.8333 431.5 79.5C427.833 79.1667 424.167 80.1667 420.5 82.5ZM376.5 137C374.167 138.333 372.167 140.167 370.5 142.5C368.833 144.833 367.833 147.833 367.5 151.5C367.167 155.167 367.333 158 368 160C368.667 162 371.167 165.333 375.5 170C379.833 174.667 382.667 178.5 384 181.5C385.333 184.5 386.167 187.833 386.5 191.5C386.833 195.167 386.167 199.667 384.5 205C382.833 210.333 379.833 215.333 375.5 220C371.167 224.667 368.667 229.167 368 233.5C367.333 237.833 367.667 241.5 369 244.5C370.333 247.5 371.833 249.667 373.5 251C375.167 252.333 378.333 253.333 383 254C387.667 254.667 391.167 254.5 393.5 253.5C395.833 252.5 398.333 250.667 401 248C403.667 245.333 407 241 411 235C415 229 417.833 223.167 419.5 217.5C421.167 211.833 422.167 205.5 422.5 198.5C422.833 191.5 422.5 185.333 421.5 180C420.5 174.667 418 168.333 414 161C410 153.667 406.167 148 402.5 144C398.833 140 395.833 137.5 393.5 136.5C391.167 135.5 388.333 135 385 135C381.667 135 378.833 135.667 376.5 137Z" fill="#ffffff" fill-rule="nonzero" opacity="1" stroke="none"/>
</g>
</svg>
