<?xml version="1.0" encoding="UTF-8" standalone="no"?>
<!DOCTYPE svg PUBLIC "-//W3C//DTD SVG 1.1//EN" "http://www.w3.org/Graphics/SVG/1.1/DTD/svg11.dtd">
<!-- Created with Vectornator (http://vectornator.io/) -->
<svg height="100%" stroke-miterlimit="10" style="fill-rule:nonzero;clip-rule:evenodd;stroke-linecap:round;stroke-linejoin:round;" version="1.1" viewBox="0 0 24 24" width="100%" xml:space="preserve" xmlns="http://www.w3.org/2000/svg" xmlns:vectornator="http://vectornator.io" xmlns:xlink="http://www.w3.org/1999/xlink">
<defs/>
<g id="Untitled" vectornator:layerName="Untitled">
<path d="M13.15 15.35C13.2432 15.4413 13.3686 15.4921 13.499 15.4915C13.6294 15.4908 13.7543 15.4387 13.8465 15.3465C13.9387 15.2543 13.9908 15.1294 13.9915 14.999C13.9921 14.8686 13.9413 14.7432 13.85 14.65L11.21 12L13.85 9.35001C13.9413 9.25686 13.9921 9.13146 13.9915 9.00104C13.9908 8.87063 13.9387 8.74574 13.8465 8.65353C13.7543 8.56131 13.6294 8.50921 13.499 8.50855C13.3686 8.50789 13.2432 8.55873 13.15 8.65001L10.15 11.65C10.1037 11.6958 10.0669 11.7503 10.0418 11.8104C10.0167 11.8704 10.0038 11.9349 10.0038 12C10.0038 12.0651 10.0167 12.1296 10.0418 12.1897C10.0669 12.2497 10.1037 12.3042 10.15 12.35L13.15 15.35Z" fill="#ffffff" fill-rule="nonzero" opacity="1" stroke="none"/>
<path d="M5.56299 20.937L18.437 20.937C19.1 20.937 19.7359 20.6736 20.2048 20.2048C20.6736 19.7359 20.937 19.1 20.937 18.437L20.937 5.56299C20.937 4.89995 20.6736 4.26406 20.2048 3.79522C19.7359 3.32638 19.1 3.06299 18.437 3.06299L5.56299 3.06299C4.89999 3.06299 4.26409 3.32638 3.79519 3.79522C3.32639 4.26406 3.06299 4.89995 3.06299 5.56299L3.06299 18.437C3.06299 19.1 3.32639 19.7359 3.79519 20.2048C4.26409 20.6736 4.89999 20.937 5.56299 20.937ZM18.437 4.06299C18.8348 4.06299 19.2164 4.22102 19.4977 4.50233C19.779 4.78363 19.937 5.16516 19.937 5.56299L19.937 18.437C19.937 18.8348 19.779 19.2163 19.4977 19.4976C19.2164 19.779 18.8348 19.937 18.437 19.937L5.56299 19.937C5.16519 19.937 4.78369 19.779 4.50239 19.4976C4.22099 19.2163 4.06299 18.8348 4.06299 18.437L4.06299 5.56299C4.06299 5.16516 4.22099 4.78363 4.50239 4.50233C4.78369 4.22102 5.16519 4.06299 5.56299 4.06299L18.437 4.06299Z" fill="#ffffff" fill-rule="nonzero" opacity="1" stroke="none"/>
</g>
</svg>
