<svg width="24" height="24" viewBox="0 0 24 24" fill="none" xmlns="http://www.w3.org/2000/svg">
<path d="M10.85 15.35C10.7568 15.4413 10.6314 15.4921 10.501 15.4915C10.3706 15.4908 10.2457 15.4387 10.1535 15.3465C10.0613 15.2543 10.0092 15.1294 10.0085 14.999C10.0079 14.8686 10.0587 14.7432 10.15 14.65L12.79 12L10.15 9.35001C10.0587 9.25686 10.0079 9.13146 10.0085 9.00104C10.0092 8.87063 10.0613 8.74574 10.1535 8.65353C10.2457 8.56131 10.3706 8.50921 10.501 8.50855C10.6314 8.50789 10.7568 8.55873 10.85 8.65001L13.85 11.65C13.8963 11.6958 13.9331 11.7503 13.9582 11.8104C13.9833 11.8704 13.9962 11.9349 13.9962 12C13.9962 12.0651 13.9833 12.1296 13.9582 12.1897C13.9331 12.2497 13.8963 12.3042 13.85 12.35L10.85 15.35Z" fill="white"/>
<path d="M18.437 20.937H5.56299C4.89995 20.937 4.26406 20.6736 3.79522 20.2048C3.32638 19.7359 3.06299 19.1 3.06299 18.437V5.56299C3.06299 4.89995 3.32638 4.26406 3.79522 3.79522C4.26406 3.32638 4.89995 3.06299 5.56299 3.06299H18.437C19.1 3.06299 19.7359 3.32638 20.2048 3.79522C20.6736 4.26406 20.937 4.89995 20.937 5.56299V18.437C20.937 19.1 20.6736 19.7359 20.2048 20.2048C19.7359 20.6736 19.1 20.937 18.437 20.937ZM5.56299 4.06299C5.16516 4.06299 4.78363 4.22102 4.50233 4.50233C4.22102 4.78363 4.06299 5.16516 4.06299 5.56299V18.437C4.06299 18.8348 4.22102 19.2163 4.50233 19.4976C4.78363 19.779 5.16516 19.937 5.56299 19.937H18.437C18.8348 19.937 19.2163 19.779 19.4976 19.4976C19.779 19.2163 19.937 18.8348 19.937 18.437V5.56299C19.937 5.16516 19.779 4.78363 19.4976 4.50233C19.2163 4.22102 18.8348 4.06299 18.437 4.06299H5.56299Z" fill="white"/>
</svg>
