<svg width="24" height="24" viewBox="0 0 24 24" fill="none" xmlns="http://www.w3.org/2000/svg">
<path d="M8.64999 10.85C8.55871 10.7569 8.50787 10.6315 8.50853 10.501C8.50919 10.3706 8.56129 10.2457 8.65351 10.1535C8.74573 10.0613 8.87061 10.0092 9.00103 10.0086C9.13144 10.0079 9.25685 10.0587 9.34999 10.15L12 12.79L14.65 10.15C14.7431 10.0587 14.8685 10.0079 14.999 10.0086C15.1294 10.0092 15.2543 10.0613 15.3465 10.1535C15.4387 10.2457 15.4908 10.3706 15.4914 10.501C15.4921 10.6315 15.4413 10.7569 15.35 10.85L12.35 13.85C12.3042 13.8963 12.2497 13.9331 12.1896 13.9582C12.1296 13.9833 12.0651 13.9962 12 13.9962C11.9349 13.9962 11.8704 13.9833 11.8103 13.9582C11.7503 13.9331 11.6958 13.8963 11.65 13.85L8.64999 10.85Z" fill="white"/>
<path d="M3.063 18.437V5.56299C3.063 4.89995 3.32639 4.26406 3.79523 3.79522C4.26407 3.32638 4.89995 3.06299 5.563 3.06299L18.437 3.06299C19.1 3.06299 19.7359 3.32638 20.2048 3.79522C20.6736 4.26406 20.937 4.89995 20.937 5.56299V18.437C20.937 19.1 20.6736 19.7359 20.2048 20.2048C19.7359 20.6736 19.1 20.937 18.437 20.937H5.563C4.89995 20.937 4.26407 20.6736 3.79523 20.2048C3.32639 19.7359 3.063 19.1 3.063 18.437ZM19.937 5.56299C19.937 5.16516 19.779 4.78363 19.4977 4.50233C19.2164 4.22102 18.8348 4.06299 18.437 4.06299H5.563C5.16517 4.06299 4.78364 4.22102 4.50234 4.50233C4.22103 4.78363 4.063 5.16516 4.063 5.56299V18.437C4.063 18.8348 4.22103 19.2163 4.50234 19.4976C4.78364 19.779 5.16517 19.937 5.563 19.937H18.437C18.8348 19.937 19.2164 19.779 19.4977 19.4976C19.779 19.2163 19.937 18.8348 19.937 18.437V5.56299Z" fill="white"/>
</svg>
