<?xml version="1.0" encoding="UTF-8" standalone="no"?>
<!DOCTYPE svg PUBLIC "-//W3C//DTD SVG 1.1//EN" "http://www.w3.org/Graphics/SVG/1.1/DTD/svg11.dtd">
<!-- Created with Vectornator (http://vectornator.io/) -->
<svg height="100%" stroke-miterlimit="10" style="fill-rule:nonzero;clip-rule:evenodd;stroke-linecap:round;stroke-linejoin:round;" version="1.1" viewBox="0 0 24 24" width="100%" xml:space="preserve" xmlns="http://www.w3.org/2000/svg" xmlns:vectornator="http://vectornator.io" xmlns:xlink="http://www.w3.org/1999/xlink">
<defs/>
<g id="Untitled" vectornator:layerName="Untitled">
<path d="M8.64999 13.15C8.55871 13.2431 8.50787 13.3685 8.50853 13.499C8.50919 13.6294 8.56129 13.7543 8.65351 13.8465C8.74573 13.9387 8.87061 13.9908 9.00103 13.9914C9.13144 13.9921 9.25685 13.9413 9.34999 13.85L12 11.21L14.65 13.85C14.7431 13.9413 14.8685 13.9921 14.999 13.9914C15.1294 13.9908 15.2543 13.9387 15.3465 13.8465C15.4387 13.7543 15.4908 13.6294 15.4914 13.499C15.4921 13.3685 15.4413 13.2431 15.35 13.15L12.35 10.15C12.3042 10.1037 12.2497 10.0669 12.1896 10.0418C12.1296 10.0167 12.0651 10.0038 12 10.0038C11.9349 10.0038 11.8704 10.0167 11.8103 10.0418C11.7503 10.0669 11.6958 10.1037 11.65 10.15L8.64999 13.15Z" fill="#ffffff" fill-rule="nonzero" opacity="1" stroke="none"/>
<path d="M3.063 5.56299L3.063 18.437C3.063 19.1 3.32639 19.7359 3.79523 20.2048C4.26407 20.6736 4.89995 20.937 5.563 20.937L18.437 20.937C19.1 20.937 19.7359 20.6736 20.2048 20.2048C20.6736 19.7359 20.937 19.1 20.937 18.437L20.937 5.56299C20.937 4.89999 20.6736 4.26409 20.2048 3.79519C19.7359 3.32639 19.1 3.06299 18.437 3.06299L5.563 3.06299C4.89995 3.06299 4.26407 3.32639 3.79523 3.79519C3.32639 4.26409 3.063 4.89999 3.063 5.56299ZM19.937 18.437C19.937 18.8348 19.779 19.2164 19.4977 19.4977C19.2164 19.779 18.8348 19.937 18.437 19.937L5.563 19.937C5.16517 19.937 4.78364 19.779 4.50234 19.4977C4.22103 19.2164 4.063 18.8348 4.063 18.437L4.063 5.56299C4.063 5.16519 4.22103 4.78369 4.50234 4.50239C4.78364 4.22099 5.16517 4.06299 5.563 4.06299L18.437 4.06299C18.8348 4.06299 19.2164 4.22099 19.4977 4.50239C19.779 4.78369 19.937 5.16519 19.937 5.56299L19.937 18.437Z" fill="#ffffff" fill-rule="nonzero" opacity="1" stroke="none"/>
</g>
</svg>
